<?xml version="1.0" standalone="no"?>
<!DOCTYPE svg PUBLIC "-//W3C//DTD SVG 20010904//EN"
 "http://www.w3.org/TR/2001/REC-SVG-20010904/DTD/svg10.dtd">
<svg version="1.0" xmlns="http://www.w3.org/2000/svg"
 width="512.000000pt" height="512.000000pt" viewBox="0 0 512.000000 512.000000"
 preserveAspectRatio="xMidYMid meet">
<metadata>
Created by potrace 1.11, written by Peter Selinger 2001-2013
</metadata>
<g transform="translate(0.000000,512.000000) scale(0.100000,-0.100000)"
fill="#000000" stroke="none">
<path d="M2490 3855 c-168 -36 -339 -110 -469 -202 -173 -124 -344 -361 -411
-569 l-23 -71 -231 -6 c-127 -4 -327 -7 -443 -7 l-213 0 0 -97 c0 -54 3 -115
6 -135 l7 -38 408 0 409 0 0 -175 0 -175 -416 0 c-259 0 -414 -4 -412 -10 7
-20 634 -600 649 -600 5 0 9 64 9 143 0 200 -7 187 104 186 50 0 99 -4 109 -8
11 -4 28 -33 41 -71 53 -150 153 -314 263 -430 208 -221 484 -330 832 -330
201 0 356 28 502 89 140 59 369 242 369 295 0 25 -26 61 -104 144 -32 33 -47
42 -74 42 -41 0 -55 -7 -151 -79 -157 -116 -284 -154 -506 -154 -165 1 -252
20 -383 84 -137 69 -263 201 -346 367 l-26 52 1181 0 1182 0 -7 77 c-3 42 -6
105 -6 140 l0 63 -1209 0 -1208 0 -7 38 c-3 20 -6 92 -6 159 0 117 1 123 23
134 17 9 312 14 1220 17 659 3 1196 8 1195 12 -2 3 -66 65 -143 136 -76 71
-223 207 -325 302 l-185 174 -3 -171 -2 -171 -855 0 -855 0 36 73 c99 198 249
335 444 408 80 30 95 32 245 37 124 3 175 0 229 -12 80 -19 210 -78 312 -142
101 -62 122 -65 172 -20 22 20 63 71 93 113 l53 76 -55 50 c-146 135 -377 241
-580 267 -116 14 -360 11 -439 -5z"/>
</g>
</svg>
