<?xml version="1.0" standalone="no"?>
<!DOCTYPE svg PUBLIC "-//W3C//DTD SVG 20010904//EN"
 "http://www.w3.org/TR/2001/REC-SVG-20010904/DTD/svg10.dtd">
<svg version="1.0" xmlns="http://www.w3.org/2000/svg"
 width="512.000000pt" height="512.000000pt" viewBox="0 0 512.000000 512.000000"
 preserveAspectRatio="xMidYMid meet">
<metadata>
Created by potrace 1.11, written by Peter Selinger 2001-2013
</metadata>
<g transform="translate(0.000000,512.000000) scale(0.100000,-0.100000)"
fill="#000000" stroke="none">
<path d="M2779 3129 c-227 -453 -413 -826 -414 -829 -1 -3 -37 -75 -80 -160
-44 -85 -84 -166 -89 -180 -5 -14 -12 -29 -16 -35 -8 -10 -292 -576 -310 -617
-6 -13 -61 -124 -124 -248 l-113 -225 778 -3 c427 -1 1130 -1 1562 0 l785 3
-344 685 c-189 377 -348 695 -353 707 -24 54 -854 1709 -861 1717 -5 5 -194
-362 -421 -815z"/>
<path d="M544 3213 c62 -126 283 -571 491 -990 209 -420 382 -763 385 -763 3
0 164 321 359 712 195 392 417 838 493 991 l138 277 -990 0 -990 0 114 -227z"/>
</g>
</svg>
